<svg xmlns="http://www.w3.org/2000/svg" viewBox="0 0 1040 512" width="1040" height="512" font-family="ui-monospace, SFMono-Regular, Menlo, Consolas, monospace" font-size="13">
<rect x="0.0" y="0.0" width="240.0" height="16.0" fill="#1e2030"/>
<rect x="240.0" y="0.0" width="800.0" height="16.0" fill="#24273a"/>
<rect x="0.0" y="16.0" width="16.0" height="16.0" fill="#1e2030"/>
<rect x="16.0" y="16.0" width="24.0" height="16.0" fill="#f5a97f"/>
<rect x="40.0" y="16.0" width="200.0" height="16.0" fill="#1e2030"/>
<rect x="240.0" y="16.0" width="800.0" height="16.0" fill="#24273a"/>
<rect x="0.0" y="32.0" width="240.0" height="16.0" fill="#1e2030"/>
<rect x="240.0" y="32.0" width="800.0" height="16.0" fill="#24273a"/>
<rect x="0.0" y="48.0" width="240.0" height="16.0" fill="#1e2030"/>
<rect x="240.0" y="48.0" width="16.0" height="16.0" fill="#24273a"/>
<rect x="256.0" y="48.0" width="608.0" height="16.0" fill="#1e2030"/>
<rect x="864.0" y="48.0" width="176.0" height="16.0" fill="#24273a"/>
<rect x="0.0" y="64.0" width="240.0" height="16.0" fill="#1e2030"/>
<rect x="240.0" y="64.0" width="16.0" height="16.0" fill="#24273a"/>
<rect x="256.0" y="64.0" width="608.0" height="16.0" fill="#1e2030"/>
<rect x="864.0" y="64.0" width="176.0" height="16.0" fill="#24273a"/>
<rect x="0.0" y="80.0" width="8.0" height="16.0" fill="#1e2030"/>
<rect x="8.0" y="80.0" width="216.0" height="16.0" fill="#363a4f"/>
<rect x="224.0" y="80.0" width="16.0" height="16.0" fill="#1e2030"/>
<rect x="240.0" y="80.0" width="16.0" height="16.0" fill="#24273a"/>
<rect x="256.0" y="80.0" width="8.0" height="16.0" fill="#1e2030"/>
<rect x="264.0" y="80.0" width="592.0" height="16.0" fill="#363a4f"/>
<rect x="856.0" y="80.0" width="8.0" height="16.0" fill="#1e2030"/>
<rect x="864.0" y="80.0" width="176.0" height="16.0" fill="#24273a"/>
<rect x="0.0" y="96.0" width="240.0" height="16.0" fill="#1e2030"/>
<rect x="240.0" y="96.0" width="16.0" height="16.0" fill="#24273a"/>
<rect x="256.0" y="96.0" width="608.0" height="16.0" fill="#1e2030"/>
<rect x="864.0" y="96.0" width="176.0" height="16.0" fill="#24273a"/>
<rect x="0.0" y="112.0" width="240.0" height="16.0" fill="#1e2030"/>
<rect x="240.0" y="112.0" width="16.0" height="16.0" fill="#24273a"/>
<rect x="256.0" y="112.0" width="608.0" height="16.0" fill="#1e2030"/>
<rect x="864.0" y="112.0" width="176.0" height="16.0" fill="#24273a"/>
<rect x="0.0" y="128.0" width="240.0" height="16.0" fill="#1e2030"/>
<rect x="240.0" y="128.0" width="16.0" height="16.0" fill="#24273a"/>
<rect x="256.0" y="128.0" width="608.0" height="16.0" fill="#1e2030"/>
<rect x="864.0" y="128.0" width="176.0" height="16.0" fill="#24273a"/>
<rect x="0.0" y="144.0" width="240.0" height="16.0" fill="#1e2030"/>
<rect x="240.0" y="144.0" width="800.0" height="16.0" fill="#24273a"/>
<rect x="0.0" y="160.0" width="240.0" height="16.0" fill="#1e2030"/>
<rect x="240.0" y="160.0" width="16.0" height="16.0" fill="#24273a"/>
<rect x="256.0" y="160.0" width="608.0" height="16.0" fill="#1e2030"/>
<rect x="864.0" y="160.0" width="176.0" height="16.0" fill="#24273a"/>
<rect x="0.0" y="176.0" width="240.0" height="16.0" fill="#1e2030"/>
<rect x="240.0" y="176.0" width="16.0" height="16.0" fill="#24273a"/>
<rect x="256.0" y="176.0" width="608.0" height="16.0" fill="#1e2030"/>
<rect x="864.0" y="176.0" width="176.0" height="16.0" fill="#24273a"/>
<rect x="0.0" y="192.0" width="240.0" height="16.0" fill="#1e2030"/>
<rect x="240.0" y="192.0" width="16.0" height="16.0" fill="#24273a"/>
<rect x="256.0" y="192.0" width="608.0" height="16.0" fill="#1e2030"/>
<rect x="864.0" y="192.0" width="176.0" height="16.0" fill="#24273a"/>
<rect x="0.0" y="208.0" width="240.0" height="16.0" fill="#1e2030"/>
<rect x="240.0" y="208.0" width="16.0" height="16.0" fill="#24273a"/>
<rect x="256.0" y="208.0" width="608.0" height="16.0" fill="#1e2030"/>
<rect x="864.0" y="208.0" width="176.0" height="16.0" fill="#24273a"/>
<rect x="0.0" y="224.0" width="240.0" height="16.0" fill="#1e2030"/>
<rect x="240.0" y="224.0" width="16.0" height="16.0" fill="#24273a"/>
<rect x="256.0" y="224.0" width="608.0" height="16.0" fill="#1e2030"/>
<rect x="864.0" y="224.0" width="176.0" height="16.0" fill="#24273a"/>
<rect x="0.0" y="240.0" width="240.0" height="16.0" fill="#1e2030"/>
<rect x="240.0" y="240.0" width="16.0" height="16.0" fill="#24273a"/>
<rect x="256.0" y="240.0" width="608.0" height="16.0" fill="#1e2030"/>
<rect x="864.0" y="240.0" width="176.0" height="16.0" fill="#24273a"/>
<rect x="0.0" y="256.0" width="240.0" height="16.0" fill="#1e2030"/>
<rect x="240.0" y="256.0" width="16.0" height="16.0" fill="#24273a"/>
<rect x="256.0" y="256.0" width="608.0" height="16.0" fill="#1e2030"/>
<rect x="864.0" y="256.0" width="176.0" height="16.0" fill="#24273a"/>
<rect x="0.0" y="272.0" width="240.0" height="16.0" fill="#1e2030"/>
<rect x="240.0" y="272.0" width="16.0" height="16.0" fill="#24273a"/>
<rect x="256.0" y="272.0" width="608.0" height="16.0" fill="#1e2030"/>
<rect x="864.0" y="272.0" width="176.0" height="16.0" fill="#24273a"/>
<rect x="0.0" y="288.0" width="240.0" height="16.0" fill="#1e2030"/>
<rect x="240.0" y="288.0" width="800.0" height="16.0" fill="#24273a"/>
<rect x="0.0" y="304.0" width="240.0" height="16.0" fill="#1e2030"/>
<rect x="240.0" y="304.0" width="800.0" height="16.0" fill="#24273a"/>
<rect x="0.0" y="320.0" width="240.0" height="16.0" fill="#1e2030"/>
<rect x="240.0" y="320.0" width="800.0" height="16.0" fill="#24273a"/>
<rect x="0.0" y="336.0" width="240.0" height="16.0" fill="#1e2030"/>
<rect x="240.0" y="336.0" width="800.0" height="16.0" fill="#24273a"/>
<rect x="0.0" y="352.0" width="240.0" height="16.0" fill="#1e2030"/>
<rect x="240.0" y="352.0" width="800.0" height="16.0" fill="#24273a"/>
<rect x="0.0" y="368.0" width="240.0" height="16.0" fill="#1e2030"/>
<rect x="240.0" y="368.0" width="800.0" height="16.0" fill="#24273a"/>
<rect x="0.0" y="384.0" width="240.0" height="16.0" fill="#1e2030"/>
<rect x="240.0" y="384.0" width="800.0" height="16.0" fill="#24273a"/>
<rect x="0.0" y="400.0" width="240.0" height="16.0" fill="#1e2030"/>
<rect x="240.0" y="400.0" width="800.0" height="16.0" fill="#24273a"/>
<rect x="0.0" y="416.0" width="240.0" height="16.0" fill="#1e2030"/>
<rect x="240.0" y="416.0" width="800.0" height="16.0" fill="#24273a"/>
<rect x="0.0" y="432.0" width="240.0" height="16.0" fill="#1e2030"/>
<rect x="240.0" y="432.0" width="800.0" height="16.0" fill="#24273a"/>
<rect x="0.0" y="448.0" width="240.0" height="16.0" fill="#1e2030"/>
<rect x="240.0" y="448.0" width="800.0" height="16.0" fill="#24273a"/>
<rect x="0.0" y="464.0" width="240.0" height="16.0" fill="#1e2030"/>
<rect x="240.0" y="464.0" width="800.0" height="16.0" fill="#24273a"/>
<rect x="0.0" y="480.0" width="240.0" height="16.0" fill="#1e2030"/>
<rect x="240.0" y="480.0" width="800.0" height="16.0" fill="#24273a"/>
<rect x="0.0" y="496.0" width="8.0" height="16.0" fill="#24273a"/>
<rect x="8.0" y="496.0" width="96.0" height="16.0" fill="#363a4f"/>
<rect x="104.0" y="496.0" width="936.0" height="16.0" fill="#24273a"/>
<text x="232.00" y="12.48" fill="#363a4f">│</text>
<text x="24.00" y="28.48" fill="#24273a" font-weight="bold">Y</text>
<text x="48.00" y="28.48" fill="#cad3f5" font-weight="bold">y</text>
<text x="56.00" y="28.48" fill="#cad3f5" font-weight="bold">o</text>
<text x="64.00" y="28.48" fill="#cad3f5" font-weight="bold">u</text>
<text x="232.00" y="28.48" fill="#363a4f">│</text>
<text x="256.00" y="28.48" fill="#cad3f5" font-weight="bold">A</text>
<text x="264.00" y="28.48" fill="#cad3f5" font-weight="bold">p</text>
<text x="272.00" y="28.48" fill="#cad3f5" font-weight="bold">p</text>
<text x="280.00" y="28.48" fill="#cad3f5" font-weight="bold">e</text>
<text x="288.00" y="28.48" fill="#cad3f5" font-weight="bold">a</text>
<text x="296.00" y="28.48" fill="#cad3f5" font-weight="bold">r</text>
<text x="304.00" y="28.48" fill="#cad3f5" font-weight="bold">a</text>
<text x="312.00" y="28.48" fill="#cad3f5" font-weight="bold">n</text>
<text x="320.00" y="28.48" fill="#cad3f5" font-weight="bold">c</text>
<text x="328.00" y="28.48" fill="#cad3f5" font-weight="bold">e</text>
<text x="48.00" y="44.48" fill="#a6da95">●</text>
<text x="64.00" y="44.48" fill="#a6da95">f</text>
<text x="72.00" y="44.48" fill="#a6da95">i</text>
<text x="80.00" y="44.48" fill="#a6da95">l</text>
<text x="88.00" y="44.48" fill="#a6da95">e</text>
<text x="232.00" y="44.48" fill="#363a4f">│</text>
<text x="232.00" y="60.48" fill="#363a4f">│</text>
<text x="256.00" y="60.48" fill="#363a4f">╭</text>
<text x="264.00" y="60.48" fill="#363a4f">─</text>
<text x="272.00" y="60.48" fill="#363a4f">─</text>
<text x="280.00" y="60.48" fill="#363a4f">─</text>
<text x="288.00" y="60.48" fill="#363a4f">─</text>
<text x="296.00" y="60.48" fill="#363a4f">─</text>
<text x="304.00" y="60.48" fill="#363a4f">─</text>
<text x="312.00" y="60.48" fill="#363a4f">─</text>
<text x="320.00" y="60.48" fill="#363a4f">─</text>
<text x="328.00" y="60.48" fill="#363a4f">─</text>
<text x="336.00" y="60.48" fill="#363a4f">─</text>
<text x="344.00" y="60.48" fill="#363a4f">─</text>
<text x="352.00" y="60.48" fill="#363a4f">─</text>
<text x="360.00" y="60.48" fill="#363a4f">─</text>
<text x="368.00" y="60.48" fill="#363a4f">─</text>
<text x="376.00" y="60.48" fill="#363a4f">─</text>
<text x="384.00" y="60.48" fill="#363a4f">─</text>
<text x="392.00" y="60.48" fill="#363a4f">─</text>
<text x="400.00" y="60.48" fill="#363a4f">─</text>
<text x="408.00" y="60.48" fill="#363a4f">─</text>
<text x="416.00" y="60.48" fill="#363a4f">─</text>
<text x="424.00" y="60.48" fill="#363a4f">─</text>
<text x="432.00" y="60.48" fill="#363a4f">─</text>
<text x="440.00" y="60.48" fill="#363a4f">─</text>
<text x="448.00" y="60.48" fill="#363a4f">─</text>
<text x="456.00" y="60.48" fill="#363a4f">─</text>
<text x="464.00" y="60.48" fill="#363a4f">─</text>
<text x="472.00" y="60.48" fill="#363a4f">─</text>
<text x="480.00" y="60.48" fill="#363a4f">─</text>
<text x="488.00" y="60.48" fill="#363a4f">─</text>
<text x="496.00" y="60.48" fill="#363a4f">─</text>
<text x="504.00" y="60.48" fill="#363a4f">─</text>
<text x="512.00" y="60.48" fill="#363a4f">─</text>
<text x="520.00" y="60.48" fill="#363a4f">─</text>
<text x="528.00" y="60.48" fill="#363a4f">─</text>
<text x="536.00" y="60.48" fill="#363a4f">─</text>
<text x="544.00" y="60.48" fill="#363a4f">─</text>
<text x="552.00" y="60.48" fill="#363a4f">─</text>
<text x="560.00" y="60.48" fill="#363a4f">─</text>
<text x="568.00" y="60.48" fill="#363a4f">─</text>
<text x="576.00" y="60.48" fill="#363a4f">─</text>
<text x="584.00" y="60.48" fill="#363a4f">─</text>
<text x="592.00" y="60.48" fill="#363a4f">─</text>
<text x="600.00" y="60.48" fill="#363a4f">─</text>
<text x="608.00" y="60.48" fill="#363a4f">─</text>
<text x="616.00" y="60.48" fill="#363a4f">─</text>
<text x="624.00" y="60.48" fill="#363a4f">─</text>
<text x="632.00" y="60.48" fill="#363a4f">─</text>
<text x="640.00" y="60.48" fill="#363a4f">─</text>
<text x="648.00" y="60.48" fill="#363a4f">─</text>
<text x="656.00" y="60.48" fill="#363a4f">─</text>
<text x="664.00" y="60.48" fill="#363a4f">─</text>
<text x="672.00" y="60.48" fill="#363a4f">─</text>
<text x="680.00" y="60.48" fill="#363a4f">─</text>
<text x="688.00" y="60.48" fill="#363a4f">─</text>
<text x="696.00" y="60.48" fill="#363a4f">─</text>
<text x="704.00" y="60.48" fill="#363a4f">─</text>
<text x="712.00" y="60.48" fill="#363a4f">─</text>
<text x="720.00" y="60.48" fill="#363a4f">─</text>
<text x="728.00" y="60.48" fill="#363a4f">─</text>
<text x="736.00" y="60.48" fill="#363a4f">─</text>
<text x="744.00" y="60.48" fill="#363a4f">─</text>
<text x="752.00" y="60.48" fill="#363a4f">─</text>
<text x="760.00" y="60.48" fill="#363a4f">─</text>
<text x="768.00" y="60.48" fill="#363a4f">─</text>
<text x="776.00" y="60.48" fill="#363a4f">─</text>
<text x="784.00" y="60.48" fill="#363a4f">─</text>
<text x="792.00" y="60.48" fill="#363a4f">─</text>
<text x="800.00" y="60.48" fill="#363a4f">─</text>
<text x="808.00" y="60.48" fill="#363a4f">─</text>
<text x="816.00" y="60.48" fill="#363a4f">─</text>
<text x="824.00" y="60.48" fill="#363a4f">─</text>
<text x="832.00" y="60.48" fill="#363a4f">─</text>
<text x="840.00" y="60.48" fill="#363a4f">─</text>
<text x="848.00" y="60.48" fill="#363a4f">─</text>
<text x="856.00" y="60.48" fill="#363a4f">╮</text>
<text x="24.00" y="76.48" fill="#a5adcb">S</text>
<text x="32.00" y="76.48" fill="#a5adcb">y</text>
<text x="40.00" y="76.48" fill="#a5adcb">n</text>
<text x="48.00" y="76.48" fill="#a5adcb">c</text>
<text x="64.00" y="76.48" fill="#a5adcb">&amp;</text>
<text x="80.00" y="76.48" fill="#a5adcb">c</text>
<text x="88.00" y="76.48" fill="#a5adcb">a</text>
<text x="96.00" y="76.48" fill="#a5adcb">l</text>
<text x="104.00" y="76.48" fill="#a5adcb">e</text>
<text x="112.00" y="76.48" fill="#a5adcb">n</text>
<text x="120.00" y="76.48" fill="#a5adcb">d</text>
<text x="128.00" y="76.48" fill="#a5adcb">a</text>
<text x="136.00" y="76.48" fill="#a5adcb">r</text>
<text x="144.00" y="76.48" fill="#a5adcb">s</text>
<text x="232.00" y="76.48" fill="#363a4f">│</text>
<text x="256.00" y="76.48" fill="#363a4f">│</text>
<text x="272.00" y="76.48" fill="#6e738d" font-weight="bold">L</text>
<text x="280.00" y="76.48" fill="#6e738d" font-weight="bold">O</text>
<text x="288.00" y="76.48" fill="#6e738d" font-weight="bold">O</text>
<text x="296.00" y="76.48" fill="#6e738d" font-weight="bold">K</text>
<text x="856.00" y="76.48" fill="#363a4f">│</text>
<text x="24.00" y="92.48" fill="#cad3f5" font-weight="bold">A</text>
<text x="32.00" y="92.48" fill="#cad3f5" font-weight="bold">p</text>
<text x="40.00" y="92.48" fill="#cad3f5" font-weight="bold">p</text>
<text x="48.00" y="92.48" fill="#cad3f5" font-weight="bold">e</text>
<text x="56.00" y="92.48" fill="#cad3f5" font-weight="bold">a</text>
<text x="64.00" y="92.48" fill="#cad3f5" font-weight="bold">r</text>
<text x="72.00" y="92.48" fill="#cad3f5" font-weight="bold">a</text>
<text x="80.00" y="92.48" fill="#cad3f5" font-weight="bold">n</text>
<text x="88.00" y="92.48" fill="#cad3f5" font-weight="bold">c</text>
<text x="96.00" y="92.48" fill="#cad3f5" font-weight="bold">e</text>
<text x="232.00" y="92.48" fill="#363a4f">│</text>
<text x="256.00" y="92.48" fill="#363a4f">│</text>
<text x="264.00" y="92.48" fill="#c6a0f6">▎</text>
<text x="280.00" y="92.48" fill="#cad3f5">T</text>
<text x="288.00" y="92.48" fill="#cad3f5">h</text>
<text x="296.00" y="92.48" fill="#cad3f5">e</text>
<text x="304.00" y="92.48" fill="#cad3f5">m</text>
<text x="312.00" y="92.48" fill="#cad3f5">e</text>
<text x="432.00" y="92.48" fill="#c6a0f6">C</text>
<text x="440.00" y="92.48" fill="#c6a0f6">a</text>
<text x="448.00" y="92.48" fill="#c6a0f6">t</text>
<text x="456.00" y="92.48" fill="#c6a0f6">p</text>
<text x="464.00" y="92.48" fill="#c6a0f6">p</text>
<text x="472.00" y="92.48" fill="#c6a0f6">u</text>
<text x="480.00" y="92.48" fill="#c6a0f6">c</text>
<text x="488.00" y="92.48" fill="#c6a0f6">c</text>
<text x="496.00" y="92.48" fill="#c6a0f6">i</text>
<text x="504.00" y="92.48" fill="#c6a0f6">n</text>
<text x="520.00" y="92.48" fill="#c6a0f6">M</text>
<text x="528.00" y="92.48" fill="#c6a0f6">a</text>
<text x="536.00" y="92.48" fill="#c6a0f6">c</text>
<text x="544.00" y="92.48" fill="#c6a0f6">c</text>
<text x="552.00" y="92.48" fill="#c6a0f6">h</text>
<text x="560.00" y="92.48" fill="#c6a0f6">i</text>
<text x="568.00" y="92.48" fill="#c6a0f6">a</text>
<text x="576.00" y="92.48" fill="#c6a0f6">t</text>
<text x="584.00" y="92.48" fill="#c6a0f6">o</text>
<text x="600.00" y="92.48" fill="#c6a0f6">›</text>
<text x="856.00" y="92.48" fill="#363a4f">│</text>
<text x="24.00" y="108.48" fill="#a5adcb">L</text>
<text x="32.00" y="108.48" fill="#a5adcb">i</text>
<text x="40.00" y="108.48" fill="#a5adcb">s</text>
<text x="48.00" y="108.48" fill="#a5adcb">t</text>
<text x="56.00" y="108.48" fill="#a5adcb">s</text>
<text x="232.00" y="108.48" fill="#363a4f">│</text>
<text x="256.00" y="108.48" fill="#363a4f">│</text>
<text x="280.00" y="108.48" fill="#cad3f5">D</text>
<text x="288.00" y="108.48" fill="#cad3f5">e</text>
<text x="296.00" y="108.48" fill="#cad3f5">n</text>
<text x="304.00" y="108.48" fill="#cad3f5">s</text>
<text x="312.00" y="108.48" fill="#cad3f5">i</text>
<text x="320.00" y="108.48" fill="#cad3f5">t</text>
<text x="328.00" y="108.48" fill="#cad3f5">y</text>
<text x="432.00" y="108.48" fill="#c6a0f6">c</text>
<text x="440.00" y="108.48" fill="#c6a0f6">o</text>
<text x="448.00" y="108.48" fill="#c6a0f6">m</text>
<text x="456.00" y="108.48" fill="#c6a0f6">p</text>
<text x="464.00" y="108.48" fill="#c6a0f6">a</text>
<text x="472.00" y="108.48" fill="#c6a0f6">c</text>
<text x="480.00" y="108.48" fill="#c6a0f6">t</text>
<text x="496.00" y="108.48" fill="#c6a0f6">›</text>
<text x="856.00" y="108.48" fill="#363a4f">│</text>
<text x="24.00" y="124.48" fill="#a5adcb">C</text>
<text x="32.00" y="124.48" fill="#a5adcb">a</text>
<text x="40.00" y="124.48" fill="#a5adcb">p</text>
<text x="48.00" y="124.48" fill="#a5adcb">t</text>
<text x="56.00" y="124.48" fill="#a5adcb">u</text>
<text x="64.00" y="124.48" fill="#a5adcb">r</text>
<text x="72.00" y="124.48" fill="#a5adcb">e</text>
<text x="232.00" y="124.48" fill="#363a4f">│</text>
<text x="256.00" y="124.48" fill="#363a4f">│</text>
<text x="280.00" y="124.48" fill="#cad3f5">I</text>
<text x="288.00" y="124.48" fill="#cad3f5">c</text>
<text x="296.00" y="124.48" fill="#cad3f5">o</text>
<text x="304.00" y="124.48" fill="#cad3f5">n</text>
<text x="312.00" y="124.48" fill="#cad3f5">s</text>
<text x="432.00" y="124.48" fill="#c6a0f6">u</text>
<text x="440.00" y="124.48" fill="#c6a0f6">n</text>
<text x="448.00" y="124.48" fill="#c6a0f6">i</text>
<text x="456.00" y="124.48" fill="#c6a0f6">c</text>
<text x="464.00" y="124.48" fill="#c6a0f6">o</text>
<text x="472.00" y="124.48" fill="#c6a0f6">d</text>
<text x="480.00" y="124.48" fill="#c6a0f6">e</text>
<text x="496.00" y="124.48" fill="#c6a0f6">›</text>
<text x="856.00" y="124.48" fill="#363a4f">│</text>
<text x="24.00" y="140.48" fill="#a5adcb">D</text>
<text x="32.00" y="140.48" fill="#a5adcb">a</text>
<text x="40.00" y="140.48" fill="#a5adcb">t</text>
<text x="48.00" y="140.48" fill="#a5adcb">a</text>
<text x="64.00" y="140.48" fill="#a5adcb">&amp;</text>
<text x="80.00" y="140.48" fill="#a5adcb">t</text>
<text x="88.00" y="140.48" fill="#a5adcb">r</text>
<text x="96.00" y="140.48" fill="#a5adcb">a</text>
<text x="104.00" y="140.48" fill="#a5adcb">s</text>
<text x="112.00" y="140.48" fill="#a5adcb">h</text>
<text x="232.00" y="140.48" fill="#363a4f">│</text>
<text x="256.00" y="140.48" fill="#363a4f">╰</text>
<text x="264.00" y="140.48" fill="#363a4f">─</text>
<text x="272.00" y="140.48" fill="#363a4f">─</text>
<text x="280.00" y="140.48" fill="#363a4f">─</text>
<text x="288.00" y="140.48" fill="#363a4f">─</text>
<text x="296.00" y="140.48" fill="#363a4f">─</text>
<text x="304.00" y="140.48" fill="#363a4f">─</text>
<text x="312.00" y="140.48" fill="#363a4f">─</text>
<text x="320.00" y="140.48" fill="#363a4f">─</text>
<text x="328.00" y="140.48" fill="#363a4f">─</text>
<text x="336.00" y="140.48" fill="#363a4f">─</text>
<text x="344.00" y="140.48" fill="#363a4f">─</text>
<text x="352.00" y="140.48" fill="#363a4f">─</text>
<text x="360.00" y="140.48" fill="#363a4f">─</text>
<text x="368.00" y="140.48" fill="#363a4f">─</text>
<text x="376.00" y="140.48" fill="#363a4f">─</text>
<text x="384.00" y="140.48" fill="#363a4f">─</text>
<text x="392.00" y="140.48" fill="#363a4f">─</text>
<text x="400.00" y="140.48" fill="#363a4f">─</text>
<text x="408.00" y="140.48" fill="#363a4f">─</text>
<text x="416.00" y="140.48" fill="#363a4f">─</text>
<text x="424.00" y="140.48" fill="#363a4f">─</text>
<text x="432.00" y="140.48" fill="#363a4f">─</text>
<text x="440.00" y="140.48" fill="#363a4f">─</text>
<text x="448.00" y="140.48" fill="#363a4f">─</text>
<text x="456.00" y="140.48" fill="#363a4f">─</text>
<text x="464.00" y="140.48" fill="#363a4f">─</text>
<text x="472.00" y="140.48" fill="#363a4f">─</text>
<text x="480.00" y="140.48" fill="#363a4f">─</text>
<text x="488.00" y="140.48" fill="#363a4f">─</text>
<text x="496.00" y="140.48" fill="#363a4f">─</text>
<text x="504.00" y="140.48" fill="#363a4f">─</text>
<text x="512.00" y="140.48" fill="#363a4f">─</text>
<text x="520.00" y="140.48" fill="#363a4f">─</text>
<text x="528.00" y="140.48" fill="#363a4f">─</text>
<text x="536.00" y="140.48" fill="#363a4f">─</text>
<text x="544.00" y="140.48" fill="#363a4f">─</text>
<text x="552.00" y="140.48" fill="#363a4f">─</text>
<text x="560.00" y="140.48" fill="#363a4f">─</text>
<text x="568.00" y="140.48" fill="#363a4f">─</text>
<text x="576.00" y="140.48" fill="#363a4f">─</text>
<text x="584.00" y="140.48" fill="#363a4f">─</text>
<text x="592.00" y="140.48" fill="#363a4f">─</text>
<text x="600.00" y="140.48" fill="#363a4f">─</text>
<text x="608.00" y="140.48" fill="#363a4f">─</text>
<text x="616.00" y="140.48" fill="#363a4f">─</text>
<text x="624.00" y="140.48" fill="#363a4f">─</text>
<text x="632.00" y="140.48" fill="#363a4f">─</text>
<text x="640.00" y="140.48" fill="#363a4f">─</text>
<text x="648.00" y="140.48" fill="#363a4f">─</text>
<text x="656.00" y="140.48" fill="#363a4f">─</text>
<text x="664.00" y="140.48" fill="#363a4f">─</text>
<text x="672.00" y="140.48" fill="#363a4f">─</text>
<text x="680.00" y="140.48" fill="#363a4f">─</text>
<text x="688.00" y="140.48" fill="#363a4f">─</text>
<text x="696.00" y="140.48" fill="#363a4f">─</text>
<text x="704.00" y="140.48" fill="#363a4f">─</text>
<text x="712.00" y="140.48" fill="#363a4f">─</text>
<text x="720.00" y="140.48" fill="#363a4f">─</text>
<text x="728.00" y="140.48" fill="#363a4f">─</text>
<text x="736.00" y="140.48" fill="#363a4f">─</text>
<text x="744.00" y="140.48" fill="#363a4f">─</text>
<text x="752.00" y="140.48" fill="#363a4f">─</text>
<text x="760.00" y="140.48" fill="#363a4f">─</text>
<text x="768.00" y="140.48" fill="#363a4f">─</text>
<text x="776.00" y="140.48" fill="#363a4f">─</text>
<text x="784.00" y="140.48" fill="#363a4f">─</text>
<text x="792.00" y="140.48" fill="#363a4f">─</text>
<text x="800.00" y="140.48" fill="#363a4f">─</text>
<text x="808.00" y="140.48" fill="#363a4f">─</text>
<text x="816.00" y="140.48" fill="#363a4f">─</text>
<text x="824.00" y="140.48" fill="#363a4f">─</text>
<text x="832.00" y="140.48" fill="#363a4f">─</text>
<text x="840.00" y="140.48" fill="#363a4f">─</text>
<text x="848.00" y="140.48" fill="#363a4f">─</text>
<text x="856.00" y="140.48" fill="#363a4f">╯</text>
<text x="24.00" y="156.48" fill="#a5adcb">K</text>
<text x="32.00" y="156.48" fill="#a5adcb">e</text>
<text x="40.00" y="156.48" fill="#a5adcb">y</text>
<text x="48.00" y="156.48" fill="#a5adcb">s</text>
<text x="232.00" y="156.48" fill="#363a4f">│</text>
<text x="24.00" y="172.48" fill="#a5adcb">A</text>
<text x="32.00" y="172.48" fill="#a5adcb">b</text>
<text x="40.00" y="172.48" fill="#a5adcb">o</text>
<text x="48.00" y="172.48" fill="#a5adcb">u</text>
<text x="56.00" y="172.48" fill="#a5adcb">t</text>
<text x="232.00" y="172.48" fill="#363a4f">│</text>
<text x="256.00" y="172.48" fill="#363a4f">╭</text>
<text x="264.00" y="172.48" fill="#363a4f">─</text>
<text x="272.00" y="172.48" fill="#363a4f">─</text>
<text x="280.00" y="172.48" fill="#363a4f">─</text>
<text x="288.00" y="172.48" fill="#363a4f">─</text>
<text x="296.00" y="172.48" fill="#363a4f">─</text>
<text x="304.00" y="172.48" fill="#363a4f">─</text>
<text x="312.00" y="172.48" fill="#363a4f">─</text>
<text x="320.00" y="172.48" fill="#363a4f">─</text>
<text x="328.00" y="172.48" fill="#363a4f">─</text>
<text x="336.00" y="172.48" fill="#363a4f">─</text>
<text x="344.00" y="172.48" fill="#363a4f">─</text>
<text x="352.00" y="172.48" fill="#363a4f">─</text>
<text x="360.00" y="172.48" fill="#363a4f">─</text>
<text x="368.00" y="172.48" fill="#363a4f">─</text>
<text x="376.00" y="172.48" fill="#363a4f">─</text>
<text x="384.00" y="172.48" fill="#363a4f">─</text>
<text x="392.00" y="172.48" fill="#363a4f">─</text>
<text x="400.00" y="172.48" fill="#363a4f">─</text>
<text x="408.00" y="172.48" fill="#363a4f">─</text>
<text x="416.00" y="172.48" fill="#363a4f">─</text>
<text x="424.00" y="172.48" fill="#363a4f">─</text>
<text x="432.00" y="172.48" fill="#363a4f">─</text>
<text x="440.00" y="172.48" fill="#363a4f">─</text>
<text x="448.00" y="172.48" fill="#363a4f">─</text>
<text x="456.00" y="172.48" fill="#363a4f">─</text>
<text x="464.00" y="172.48" fill="#363a4f">─</text>
<text x="472.00" y="172.48" fill="#363a4f">─</text>
<text x="480.00" y="172.48" fill="#363a4f">─</text>
<text x="488.00" y="172.48" fill="#363a4f">─</text>
<text x="496.00" y="172.48" fill="#363a4f">─</text>
<text x="504.00" y="172.48" fill="#363a4f">─</text>
<text x="512.00" y="172.48" fill="#363a4f">─</text>
<text x="520.00" y="172.48" fill="#363a4f">─</text>
<text x="528.00" y="172.48" fill="#363a4f">─</text>
<text x="536.00" y="172.48" fill="#363a4f">─</text>
<text x="544.00" y="172.48" fill="#363a4f">─</text>
<text x="552.00" y="172.48" fill="#363a4f">─</text>
<text x="560.00" y="172.48" fill="#363a4f">─</text>
<text x="568.00" y="172.48" fill="#363a4f">─</text>
<text x="576.00" y="172.48" fill="#363a4f">─</text>
<text x="584.00" y="172.48" fill="#363a4f">─</text>
<text x="592.00" y="172.48" fill="#363a4f">─</text>
<text x="600.00" y="172.48" fill="#363a4f">─</text>
<text x="608.00" y="172.48" fill="#363a4f">─</text>
<text x="616.00" y="172.48" fill="#363a4f">─</text>
<text x="624.00" y="172.48" fill="#363a4f">─</text>
<text x="632.00" y="172.48" fill="#363a4f">─</text>
<text x="640.00" y="172.48" fill="#363a4f">─</text>
<text x="648.00" y="172.48" fill="#363a4f">─</text>
<text x="656.00" y="172.48" fill="#363a4f">─</text>
<text x="664.00" y="172.48" fill="#363a4f">─</text>
<text x="672.00" y="172.48" fill="#363a4f">─</text>
<text x="680.00" y="172.48" fill="#363a4f">─</text>
<text x="688.00" y="172.48" fill="#363a4f">─</text>
<text x="696.00" y="172.48" fill="#363a4f">─</text>
<text x="704.00" y="172.48" fill="#363a4f">─</text>
<text x="712.00" y="172.48" fill="#363a4f">─</text>
<text x="720.00" y="172.48" fill="#363a4f">─</text>
<text x="728.00" y="172.48" fill="#363a4f">─</text>
<text x="736.00" y="172.48" fill="#363a4f">─</text>
<text x="744.00" y="172.48" fill="#363a4f">─</text>
<text x="752.00" y="172.48" fill="#363a4f">─</text>
<text x="760.00" y="172.48" fill="#363a4f">─</text>
<text x="768.00" y="172.48" fill="#363a4f">─</text>
<text x="776.00" y="172.48" fill="#363a4f">─</text>
<text x="784.00" y="172.48" fill="#363a4f">─</text>
<text x="792.00" y="172.48" fill="#363a4f">─</text>
<text x="800.00" y="172.48" fill="#363a4f">─</text>
<text x="808.00" y="172.48" fill="#363a4f">─</text>
<text x="816.00" y="172.48" fill="#363a4f">─</text>
<text x="824.00" y="172.48" fill="#363a4f">─</text>
<text x="832.00" y="172.48" fill="#363a4f">─</text>
<text x="840.00" y="172.48" fill="#363a4f">─</text>
<text x="848.00" y="172.48" fill="#363a4f">─</text>
<text x="856.00" y="172.48" fill="#363a4f">╮</text>
<text x="232.00" y="188.48" fill="#363a4f">│</text>
<text x="256.00" y="188.48" fill="#363a4f">│</text>
<text x="272.00" y="188.48" fill="#6e738d" font-weight="bold">P</text>
<text x="280.00" y="188.48" fill="#6e738d" font-weight="bold">A</text>
<text x="288.00" y="188.48" fill="#6e738d" font-weight="bold">N</text>
<text x="296.00" y="188.48" fill="#6e738d" font-weight="bold">E</text>
<text x="304.00" y="188.48" fill="#6e738d" font-weight="bold">L</text>
<text x="312.00" y="188.48" fill="#6e738d" font-weight="bold">S</text>
<text x="856.00" y="188.48" fill="#363a4f">│</text>
<text x="232.00" y="204.48" fill="#363a4f">│</text>
<text x="256.00" y="204.48" fill="#363a4f">│</text>
<text x="280.00" y="204.48" fill="#cad3f5">S</text>
<text x="288.00" y="204.48" fill="#cad3f5">i</text>
<text x="296.00" y="204.48" fill="#cad3f5">d</text>
<text x="304.00" y="204.48" fill="#cad3f5">e</text>
<text x="312.00" y="204.48" fill="#cad3f5">b</text>
<text x="320.00" y="204.48" fill="#cad3f5">a</text>
<text x="328.00" y="204.48" fill="#cad3f5">r</text>
<text x="432.00" y="204.48" fill="#a6da95">●</text>
<text x="448.00" y="204.48" fill="#a6da95">o</text>
<text x="456.00" y="204.48" fill="#a6da95">n</text>
<text x="856.00" y="204.48" fill="#363a4f">│</text>
<text x="232.00" y="220.48" fill="#363a4f">│</text>
<text x="256.00" y="220.48" fill="#363a4f">│</text>
<text x="280.00" y="220.48" fill="#cad3f5">D</text>
<text x="288.00" y="220.48" fill="#cad3f5">e</text>
<text x="296.00" y="220.48" fill="#cad3f5">t</text>
<text x="304.00" y="220.48" fill="#cad3f5">a</text>
<text x="312.00" y="220.48" fill="#cad3f5">i</text>
<text x="320.00" y="220.48" fill="#cad3f5">l</text>
<text x="328.00" y="220.48" fill="#cad3f5">s</text>
<text x="432.00" y="220.48" fill="#a6da95">●</text>
<text x="448.00" y="220.48" fill="#a6da95">o</text>
<text x="456.00" y="220.48" fill="#a6da95">n</text>
<text x="856.00" y="220.48" fill="#363a4f">│</text>
<text x="232.00" y="236.48" fill="#363a4f">│</text>
<text x="256.00" y="236.48" fill="#363a4f">│</text>
<text x="280.00" y="236.48" fill="#cad3f5">S</text>
<text x="288.00" y="236.48" fill="#cad3f5">t</text>
<text x="296.00" y="236.48" fill="#cad3f5">a</text>
<text x="304.00" y="236.48" fill="#cad3f5">t</text>
<text x="312.00" y="236.48" fill="#cad3f5">u</text>
<text x="320.00" y="236.48" fill="#cad3f5">s</text>
<text x="336.00" y="236.48" fill="#cad3f5">l</text>
<text x="344.00" y="236.48" fill="#cad3f5">i</text>
<text x="352.00" y="236.48" fill="#cad3f5">n</text>
<text x="360.00" y="236.48" fill="#cad3f5">e</text>
<text x="432.00" y="236.48" fill="#a6da95">●</text>
<text x="448.00" y="236.48" fill="#a6da95">o</text>
<text x="456.00" y="236.48" fill="#a6da95">n</text>
<text x="856.00" y="236.48" fill="#363a4f">│</text>
<text x="232.00" y="252.48" fill="#363a4f">│</text>
<text x="256.00" y="252.48" fill="#363a4f">│</text>
<text x="280.00" y="252.48" fill="#cad3f5">H</text>
<text x="288.00" y="252.48" fill="#cad3f5">i</text>
<text x="296.00" y="252.48" fill="#cad3f5">n</text>
<text x="304.00" y="252.48" fill="#cad3f5">t</text>
<text x="312.00" y="252.48" fill="#cad3f5">s</text>
<text x="432.00" y="252.48" fill="#a6da95">●</text>
<text x="448.00" y="252.48" fill="#a6da95">o</text>
<text x="456.00" y="252.48" fill="#a6da95">n</text>
<text x="856.00" y="252.48" fill="#363a4f">│</text>
<text x="232.00" y="268.48" fill="#363a4f">│</text>
<text x="256.00" y="268.48" fill="#363a4f">│</text>
<text x="280.00" y="268.48" fill="#cad3f5">L</text>
<text x="288.00" y="268.48" fill="#cad3f5">i</text>
<text x="296.00" y="268.48" fill="#cad3f5">n</text>
<text x="304.00" y="268.48" fill="#cad3f5">e</text>
<text x="320.00" y="268.48" fill="#cad3f5">n</text>
<text x="328.00" y="268.48" fill="#cad3f5">u</text>
<text x="336.00" y="268.48" fill="#cad3f5">m</text>
<text x="344.00" y="268.48" fill="#cad3f5">b</text>
<text x="352.00" y="268.48" fill="#cad3f5">e</text>
<text x="360.00" y="268.48" fill="#cad3f5">r</text>
<text x="368.00" y="268.48" fill="#cad3f5">s</text>
<text x="432.00" y="268.48" fill="#6e738d">○</text>
<text x="448.00" y="268.48" fill="#6e738d">o</text>
<text x="456.00" y="268.48" fill="#6e738d">f</text>
<text x="464.00" y="268.48" fill="#6e738d">f</text>
<text x="856.00" y="268.48" fill="#363a4f">│</text>
<text x="232.00" y="284.48" fill="#363a4f">│</text>
<text x="256.00" y="284.48" fill="#363a4f">╰</text>
<text x="264.00" y="284.48" fill="#363a4f">─</text>
<text x="272.00" y="284.48" fill="#363a4f">─</text>
<text x="280.00" y="284.48" fill="#363a4f">─</text>
<text x="288.00" y="284.48" fill="#363a4f">─</text>
<text x="296.00" y="284.48" fill="#363a4f">─</text>
<text x="304.00" y="284.48" fill="#363a4f">─</text>
<text x="312.00" y="284.48" fill="#363a4f">─</text>
<text x="320.00" y="284.48" fill="#363a4f">─</text>
<text x="328.00" y="284.48" fill="#363a4f">─</text>
<text x="336.00" y="284.48" fill="#363a4f">─</text>
<text x="344.00" y="284.48" fill="#363a4f">─</text>
<text x="352.00" y="284.48" fill="#363a4f">─</text>
<text x="360.00" y="284.48" fill="#363a4f">─</text>
<text x="368.00" y="284.48" fill="#363a4f">─</text>
<text x="376.00" y="284.48" fill="#363a4f">─</text>
<text x="384.00" y="284.48" fill="#363a4f">─</text>
<text x="392.00" y="284.48" fill="#363a4f">─</text>
<text x="400.00" y="284.48" fill="#363a4f">─</text>
<text x="408.00" y="284.48" fill="#363a4f">─</text>
<text x="416.00" y="284.48" fill="#363a4f">─</text>
<text x="424.00" y="284.48" fill="#363a4f">─</text>
<text x="432.00" y="284.48" fill="#363a4f">─</text>
<text x="440.00" y="284.48" fill="#363a4f">─</text>
<text x="448.00" y="284.48" fill="#363a4f">─</text>
<text x="456.00" y="284.48" fill="#363a4f">─</text>
<text x="464.00" y="284.48" fill="#363a4f">─</text>
<text x="472.00" y="284.48" fill="#363a4f">─</text>
<text x="480.00" y="284.48" fill="#363a4f">─</text>
<text x="488.00" y="284.48" fill="#363a4f">─</text>
<text x="496.00" y="284.48" fill="#363a4f">─</text>
<text x="504.00" y="284.48" fill="#363a4f">─</text>
<text x="512.00" y="284.48" fill="#363a4f">─</text>
<text x="520.00" y="284.48" fill="#363a4f">─</text>
<text x="528.00" y="284.48" fill="#363a4f">─</text>
<text x="536.00" y="284.48" fill="#363a4f">─</text>
<text x="544.00" y="284.48" fill="#363a4f">─</text>
<text x="552.00" y="284.48" fill="#363a4f">─</text>
<text x="560.00" y="284.48" fill="#363a4f">─</text>
<text x="568.00" y="284.48" fill="#363a4f">─</text>
<text x="576.00" y="284.48" fill="#363a4f">─</text>
<text x="584.00" y="284.48" fill="#363a4f">─</text>
<text x="592.00" y="284.48" fill="#363a4f">─</text>
<text x="600.00" y="284.48" fill="#363a4f">─</text>
<text x="608.00" y="284.48" fill="#363a4f">─</text>
<text x="616.00" y="284.48" fill="#363a4f">─</text>
<text x="624.00" y="284.48" fill="#363a4f">─</text>
<text x="632.00" y="284.48" fill="#363a4f">─</text>
<text x="640.00" y="284.48" fill="#363a4f">─</text>
<text x="648.00" y="284.48" fill="#363a4f">─</text>
<text x="656.00" y="284.48" fill="#363a4f">─</text>
<text x="664.00" y="284.48" fill="#363a4f">─</text>
<text x="672.00" y="284.48" fill="#363a4f">─</text>
<text x="680.00" y="284.48" fill="#363a4f">─</text>
<text x="688.00" y="284.48" fill="#363a4f">─</text>
<text x="696.00" y="284.48" fill="#363a4f">─</text>
<text x="704.00" y="284.48" fill="#363a4f">─</text>
<text x="712.00" y="284.48" fill="#363a4f">─</text>
<text x="720.00" y="284.48" fill="#363a4f">─</text>
<text x="728.00" y="284.48" fill="#363a4f">─</text>
<text x="736.00" y="284.48" fill="#363a4f">─</text>
<text x="744.00" y="284.48" fill="#363a4f">─</text>
<text x="752.00" y="284.48" fill="#363a4f">─</text>
<text x="760.00" y="284.48" fill="#363a4f">─</text>
<text x="768.00" y="284.48" fill="#363a4f">─</text>
<text x="776.00" y="284.48" fill="#363a4f">─</text>
<text x="784.00" y="284.48" fill="#363a4f">─</text>
<text x="792.00" y="284.48" fill="#363a4f">─</text>
<text x="800.00" y="284.48" fill="#363a4f">─</text>
<text x="808.00" y="284.48" fill="#363a4f">─</text>
<text x="816.00" y="284.48" fill="#363a4f">─</text>
<text x="824.00" y="284.48" fill="#363a4f">─</text>
<text x="832.00" y="284.48" fill="#363a4f">─</text>
<text x="840.00" y="284.48" fill="#363a4f">─</text>
<text x="848.00" y="284.48" fill="#363a4f">─</text>
<text x="856.00" y="284.48" fill="#363a4f">╯</text>
<text x="232.00" y="300.48" fill="#363a4f">│</text>
<text x="232.00" y="316.48" fill="#363a4f">│</text>
<text x="232.00" y="332.48" fill="#363a4f">│</text>
<text x="232.00" y="348.48" fill="#363a4f">│</text>
<text x="232.00" y="364.48" fill="#363a4f">│</text>
<text x="232.00" y="380.48" fill="#363a4f">│</text>
<text x="232.00" y="396.48" fill="#363a4f">│</text>
<text x="232.00" y="412.48" fill="#363a4f">│</text>
<text x="232.00" y="428.48" fill="#363a4f">│</text>
<text x="232.00" y="444.48" fill="#363a4f">│</text>
<text x="232.00" y="460.48" fill="#363a4f">│</text>
<text x="232.00" y="476.48" fill="#363a4f">│</text>
<text x="232.00" y="492.48" fill="#363a4f">│</text>
<text x="256.00" y="492.48" fill="#6e738d">↑</text>
<text x="264.00" y="492.48" fill="#6e738d">↓</text>
<text x="280.00" y="492.48" fill="#6e738d">m</text>
<text x="288.00" y="492.48" fill="#6e738d">o</text>
<text x="296.00" y="492.48" fill="#6e738d">v</text>
<text x="304.00" y="492.48" fill="#6e738d">e</text>
<text x="320.00" y="492.48" fill="#6e738d">·</text>
<text x="336.00" y="492.48" fill="#6e738d">E</text>
<text x="344.00" y="492.48" fill="#6e738d">n</text>
<text x="352.00" y="492.48" fill="#6e738d">t</text>
<text x="360.00" y="492.48" fill="#6e738d">e</text>
<text x="368.00" y="492.48" fill="#6e738d">r</text>
<text x="384.00" y="492.48" fill="#6e738d">c</text>
<text x="392.00" y="492.48" fill="#6e738d">h</text>
<text x="400.00" y="492.48" fill="#6e738d">a</text>
<text x="408.00" y="492.48" fill="#6e738d">n</text>
<text x="416.00" y="492.48" fill="#6e738d">g</text>
<text x="424.00" y="492.48" fill="#6e738d">e</text>
<text x="440.00" y="492.48" fill="#6e738d">·</text>
<text x="456.00" y="492.48" fill="#6e738d">←</text>
<text x="472.00" y="492.48" fill="#6e738d">s</text>
<text x="480.00" y="492.48" fill="#6e738d">e</text>
<text x="488.00" y="492.48" fill="#6e738d">c</text>
<text x="496.00" y="492.48" fill="#6e738d">t</text>
<text x="504.00" y="492.48" fill="#6e738d">i</text>
<text x="512.00" y="492.48" fill="#6e738d">o</text>
<text x="520.00" y="492.48" fill="#6e738d">n</text>
<text x="528.00" y="492.48" fill="#6e738d">s</text>
<text x="544.00" y="492.48" fill="#6e738d">·</text>
<text x="560.00" y="492.48" fill="#6e738d">E</text>
<text x="568.00" y="492.48" fill="#6e738d">s</text>
<text x="576.00" y="492.48" fill="#6e738d">c</text>
<text x="592.00" y="492.48" fill="#6e738d">c</text>
<text x="600.00" y="492.48" fill="#6e738d">l</text>
<text x="608.00" y="492.48" fill="#6e738d">o</text>
<text x="616.00" y="492.48" fill="#6e738d">s</text>
<text x="624.00" y="492.48" fill="#6e738d">e</text>
<text x="16.00" y="508.48" fill="#a5adcb">●</text>
<text x="32.00" y="508.48" fill="#a5adcb">s</text>
<text x="40.00" y="508.48" fill="#a5adcb">e</text>
<text x="48.00" y="508.48" fill="#a5adcb">t</text>
<text x="56.00" y="508.48" fill="#a5adcb">t</text>
<text x="64.00" y="508.48" fill="#a5adcb">i</text>
<text x="72.00" y="508.48" fill="#a5adcb">n</text>
<text x="80.00" y="508.48" fill="#a5adcb">g</text>
<text x="88.00" y="508.48" fill="#a5adcb">s</text>
<text x="952.00" y="508.48" fill="#a5adcb" font-weight="bold">E</text>
<text x="960.00" y="508.48" fill="#a5adcb" font-weight="bold">s</text>
<text x="968.00" y="508.48" fill="#a5adcb" font-weight="bold">c</text>
<text x="984.00" y="508.48" fill="#6e738d">b</text>
<text x="992.00" y="508.48" fill="#6e738d">a</text>
<text x="1000.00" y="508.48" fill="#6e738d">c</text>
<text x="1008.00" y="508.48" fill="#6e738d">k</text>
</svg>
